<svg width="181" height="63" viewBox="0 0 181 63" fill="none" xmlns="http://www.w3.org/2000/svg">
<path fill-rule="evenodd" clip-rule="evenodd" d="M49.2 4.83067H4.8V58.1693H49.2V4.83067ZM0 0V63H54V0H0Z" fill="#5DAE51"/>
<path d="M37.878 19.939C37.878 20.0014 37.8769 20.0636 37.8746 20.1254C37.9364 20.1231 37.9986 20.122 38.061 20.122C40.7887 20.122 43 22.3332 43 25.061C43 27.7887 40.7887 30 38.061 30H28V19.939C28 17.2113 30.2113 15 32.939 15C35.6668 15 37.878 17.2113 37.878 19.939Z" fill="#1E1E1E"/>
<path d="M17.122 19.939C17.122 20.0014 17.1231 20.0636 17.1254 20.1254C17.0636 20.1231 17.0014 20.122 16.939 20.122C14.2113 20.122 12 22.3332 12 25.061C12 27.7887 14.2113 30 16.939 30H27V19.939C27 17.2113 24.7887 15 22.061 15C19.3332 15 17.122 17.2113 17.122 19.939Z" fill="#1E1E1E"/>
<path d="M38.061 40.878C37.9986 40.878 37.9364 40.8769 37.8746 40.8746C37.8769 40.9364 37.878 40.9986 37.878 41.061C37.878 43.7887 35.6668 46 32.939 46C30.2113 46 28 43.7887 28 41.061L28 31L38.061 31C40.7887 31 43 33.2113 43 35.939C43 38.6668 40.7887 40.878 38.061 40.878Z" fill="#1E1E1E"/>
<path d="M16.939 40.878C17.0014 40.878 17.0636 40.8769 17.1254 40.8746C17.1231 40.9364 17.122 40.9986 17.122 41.061C17.122 43.7887 19.3332 46 22.061 46C24.7887 46 27 43.7887 27 41.061L27 31L16.939 31C14.2113 31 12 33.2113 12 35.939C12 38.6668 14.2113 40.878 16.939 40.878Z" fill="#1E1E1E"/>
<path d="M71.5765 23.0466L70.9954 24.5836C70.8809 24.8849 70.7908 25.1288 70.7254 25.3151C70.6653 25.4959 70.6353 25.6356 70.6353 25.7342C70.6353 25.8274 70.6599 25.8986 70.709 25.9479C70.7581 25.9973 70.8345 26.0356 70.9381 26.063L71.7238 26.2932L71.7484 26.7205C70.9572 26.7041 70.3134 26.6959 69.8169 26.6959C69.2986 26.6959 68.7066 26.7041 68.0409 26.7205L68 26.3096L68.8757 26.0466C69.083 25.9863 69.2358 25.8877 69.334 25.7507C69.4322 25.6082 69.5414 25.3945 69.6614 25.1096L73.7372 15.1397L74.6211 15.0082L78.1485 25.0027C78.2849 25.3863 78.4076 25.6466 78.5168 25.7836C78.6313 25.9151 78.7923 26.011 78.9996 26.0712L79.8017 26.3096L79.8262 26.7205C79.0897 26.7041 78.3476 26.6959 77.6001 26.6959C76.6126 26.6959 75.6495 26.7041 74.7111 26.7205L74.6702 26.3096L75.4804 26.0712C75.5895 26.0384 75.6686 25.9973 75.7178 25.9479C75.7669 25.8986 75.7914 25.8247 75.7914 25.726C75.7914 25.6164 75.7641 25.474 75.7096 25.2986C75.655 25.1178 75.5759 24.8822 75.4722 24.5918L74.9321 23.0466H71.5765ZM73.3443 18.3288C73.2461 18.6137 73.1397 18.9096 73.0251 19.2164L71.9039 22.1918H74.6374L73.6308 19.2247C73.5271 18.9123 73.4316 18.6137 73.3443 18.3288Z" fill="#1E1E1E"/>
<path d="M84.1721 24.1151C84.1721 24.4438 84.1721 24.7397 84.1721 25.0027C84.1775 25.2603 84.183 25.4959 84.1885 25.7096C84.1939 25.8849 84.2567 25.9918 84.3767 26.0301L85.2279 26.3096L85.2524 26.7205C84.6468 26.7041 83.8966 26.6959 83.0017 26.6959C82.0469 26.6959 81.1957 26.7041 80.4483 26.7205L80.4073 26.3096L81.504 26.0055C81.6404 25.9671 81.7141 25.8822 81.725 25.7507C81.7305 25.5315 81.7332 25.2877 81.7332 25.0192C81.7386 24.7452 81.7414 24.4438 81.7414 24.1151V17.5644C81.7414 17.2904 81.7386 17.0411 81.7332 16.8164C81.7332 16.5918 81.7305 16.3863 81.725 16.2C81.7195 16.0575 81.6541 15.9671 81.5286 15.9288L80.4319 15.6082L80.4073 15.189C81.1712 15.211 81.9542 15.2219 82.7562 15.2219C82.9254 15.2219 83.1354 15.2192 83.3864 15.2137C83.6374 15.2027 83.9429 15.1918 84.303 15.1808C84.6304 15.1699 84.9032 15.1616 85.1215 15.1562C85.3452 15.1507 85.5198 15.1479 85.6453 15.1479C87.0475 15.1479 88.0978 15.3836 88.7962 15.8548C89.5 16.326 89.852 17.0137 89.852 17.9178C89.852 18.7342 89.6364 19.3945 89.2054 19.8986C88.7798 20.3973 88.1524 20.7808 87.323 21.0493C87.7813 21.7288 88.1333 22.2795 88.3788 22.7014C88.6298 23.1233 88.8808 23.5397 89.1317 23.9507C89.3827 24.3562 89.6092 24.7151 89.811 25.0274C90.0184 25.3397 90.2121 25.5863 90.3921 25.7671C90.4903 25.8493 90.5831 25.9205 90.6704 25.9808C90.7631 26.0411 90.8586 26.0932 90.9568 26.137C91.055 26.1808 91.1587 26.2192 91.2678 26.2521C91.3824 26.2795 91.5079 26.3068 91.6443 26.3342L91.677 26.7534C91.1423 26.8301 90.5313 26.8685 89.8438 26.8685C89.2982 26.8685 88.9162 26.8329 88.698 26.7616C88.4797 26.6904 88.286 26.589 88.1169 26.4575C87.8659 26.2603 87.634 26.0027 87.4212 25.6849C87.2139 25.3671 86.9929 25.0082 86.7583 24.6082C86.5237 24.2082 86.2809 23.7836 86.0299 23.3342C85.7844 22.8849 85.5252 22.4411 85.2524 22.0027C85.1706 21.8767 85.1024 21.7726 85.0478 21.6904C84.9987 21.6082 84.9469 21.5479 84.8923 21.5096C84.8432 21.4658 84.7886 21.4356 84.7286 21.4192C84.6741 21.3973 84.6031 21.3836 84.5158 21.3781L84.1721 21.3699V24.1151ZM84.1721 20.6548C84.4613 20.6712 84.7232 20.6795 84.9578 20.6795C85.7326 20.6795 86.3 20.4849 86.6601 20.0959C87.0202 19.7014 87.2003 19.0877 87.2003 18.2548C87.2003 17.4493 87.0257 16.863 86.6765 16.4959C86.3327 16.1233 85.7953 15.937 85.0642 15.937C84.9387 15.937 84.8023 15.9425 84.655 15.9534C84.5131 15.9644 84.3521 15.9808 84.1721 16.0027V20.6548Z" fill="#1E1E1E"/>
<path d="M94.4433 26.6959C93.7395 26.6959 93.0138 26.7041 92.2663 26.7205L92.2254 26.3096L93.3221 26.0055C93.4639 25.9616 93.5376 25.8767 93.5431 25.7507C93.5485 25.5315 93.5512 25.2877 93.5512 25.0192C93.5567 24.7452 93.5594 24.4438 93.5594 24.1151V17.5644C93.5594 17.2904 93.5567 17.0411 93.5512 16.8164C93.5512 16.5918 93.5485 16.3863 93.5431 16.2C93.5376 16.0575 93.4721 15.9671 93.3466 15.9288L92.2499 15.6082L92.2254 15.189C92.9893 15.211 93.7204 15.2219 94.4188 15.2219C95.008 15.2219 95.5728 15.2082 96.1129 15.1808C96.6531 15.1534 97.2123 15.1397 97.7907 15.1397C99.8258 15.1397 101.356 15.5781 102.382 16.4548C103.408 17.326 103.921 18.6219 103.921 20.3425C103.921 22.3699 103.351 23.9452 102.21 25.0685C101.075 26.1863 99.4766 26.7452 97.4142 26.7452C96.8468 26.7452 96.3421 26.737 95.9001 26.7205C95.4582 26.7041 94.9726 26.6959 94.4433 26.6959ZM96.0147 25.8575C96.2766 25.9068 96.533 25.9397 96.784 25.9562C97.035 25.9671 97.2887 25.9726 97.5452 25.9726C98.7291 25.9726 99.6294 25.5534 100.246 24.7151C100.863 23.8767 101.171 22.6 101.171 20.8849C101.171 19.2137 100.876 17.9753 100.287 17.1699C99.6976 16.3589 98.7701 15.9534 97.5042 15.9534C97.035 15.9534 96.5385 15.9753 96.0147 16.0192V25.8575Z" fill="#1E1E1E"/>
<path d="M107.293 23.0466L106.712 24.5836C106.597 24.8849 106.507 25.1288 106.441 25.3151C106.381 25.4959 106.351 25.6356 106.351 25.7342C106.351 25.8274 106.376 25.8986 106.425 25.9479C106.474 25.9973 106.551 26.0356 106.654 26.063L107.44 26.2932L107.464 26.7205C106.673 26.7041 106.03 26.6959 105.533 26.6959C105.015 26.6959 104.423 26.7041 103.757 26.7205L103.716 26.3096L104.592 26.0466C104.799 25.9863 104.952 25.8877 105.05 25.7507C105.148 25.6082 105.257 25.3945 105.377 25.1096L109.453 15.1397L110.337 15.0082L113.865 25.0027C114.001 25.3863 114.124 25.6466 114.233 25.7836C114.347 25.9151 114.508 26.011 114.716 26.0712L115.518 26.3096L115.542 26.7205C114.806 26.7041 114.064 26.6959 113.316 26.6959C112.329 26.6959 111.366 26.7041 110.427 26.7205L110.386 26.3096L111.196 26.0712C111.306 26.0384 111.385 25.9973 111.434 25.9479C111.483 25.8986 111.507 25.8247 111.507 25.726C111.507 25.6164 111.48 25.474 111.426 25.2986C111.371 25.1178 111.292 24.8822 111.188 24.5918L110.648 23.0466H107.293ZM109.06 18.3288C108.962 18.6137 108.856 18.9096 108.741 19.2164L107.62 22.1918H110.354L109.347 19.2247C109.243 18.9123 109.148 18.6137 109.06 18.3288Z" fill="#1E1E1E"/>
<path d="M124.987 18.2219L124.529 18.2877L123.956 16.0192C123.497 15.8712 122.963 15.7973 122.352 15.7973C121.129 15.7973 120.175 16.2548 119.487 17.1699C118.805 18.0795 118.464 19.3315 118.464 20.926C118.464 22.5918 118.808 23.8904 119.495 24.8219C120.183 25.7534 121.146 26.2192 122.384 26.2192C122.679 26.2192 122.995 26.1945 123.334 26.1452V23.9836C123.334 23.7096 123.331 23.4603 123.326 23.2356C123.326 23.011 123.323 22.8055 123.317 22.6192C123.312 22.4767 123.244 22.3863 123.113 22.3479L122 22.0274L121.975 21.6164C122.75 21.6329 123.59 21.6411 124.496 21.6411C125.429 21.6411 126.228 21.6329 126.894 21.6164L126.943 22.0274L125.969 22.2986C125.838 22.337 125.767 22.4192 125.756 22.5452C125.751 22.7644 125.745 22.989 125.74 23.2192C125.74 23.4438 125.74 23.6877 125.74 23.9507V26.5397L125.683 26.5973C124.51 26.8658 123.394 27 122.335 27C120.349 27 118.751 26.4904 117.539 25.4712C116.333 24.4521 115.731 23.0301 115.731 21.2055C115.731 19.2658 116.333 17.7479 117.539 16.6521C118.751 15.5507 120.401 15 122.491 15C123.495 15 124.482 15.1123 125.453 15.337L125.511 15.411L124.987 18.2219Z" fill="#1E1E1E"/>
<path d="M130.217 15.2219H132.287C133.613 15.2219 134.988 15.211 136.412 15.189L136.469 15.2548L135.962 17.9918L135.52 18.0575L134.996 16.0603H131.829V20.4247H132.271C132.746 20.4247 133.256 20.4192 133.801 20.4082C133.943 20.4027 134.036 20.3288 134.08 20.1863L134.374 19.0603L134.914 19.0356C134.898 19.8301 134.89 20.4247 134.89 20.8192C134.89 21.2027 134.898 21.789 134.914 22.5781L134.374 22.6192L134.071 21.4603C134.028 21.3123 133.943 21.2356 133.818 21.2301C133.261 21.2192 132.743 21.2137 132.263 21.2137H131.829V24.0329C131.829 24.6356 131.834 25.2329 131.845 25.8247H135.119L136.15 23.663L136.65 23.589L136.453 26.663L136.396 26.7205C135.037 26.7041 133.714 26.6959 132.426 26.6959H130.258C129.554 26.6959 128.828 26.7041 128.081 26.7205L128.04 26.3096L129.136 26.0055C129.273 25.9671 129.346 25.8822 129.357 25.7507C129.363 25.5315 129.366 25.2877 129.366 25.0192C129.371 24.7452 129.374 24.4438 129.374 24.1151V17.5644C129.374 17.2904 129.371 17.0411 129.366 16.8164C129.366 16.5918 129.363 16.3863 129.357 16.2C129.352 16.0575 129.286 15.9671 129.161 15.9288L128.064 15.6082L128.04 15.189C128.804 15.211 129.529 15.2219 130.217 15.2219Z" fill="#1E1E1E"/>
<path d="M141.904 24.1151C141.904 24.4438 141.904 24.7397 141.904 25.0027C141.909 25.2603 141.915 25.4959 141.92 25.7096C141.926 25.8849 141.988 25.9918 142.108 26.0301L142.96 26.3096L142.984 26.7205C142.379 26.7041 141.628 26.6959 140.733 26.6959C139.779 26.6959 138.927 26.7041 138.18 26.7205L138.139 26.3096L139.236 26.0055C139.372 25.9671 139.446 25.8822 139.457 25.7507C139.462 25.5315 139.465 25.2877 139.465 25.0192C139.47 24.7452 139.473 24.4438 139.473 24.1151V17.5644C139.473 17.2904 139.47 17.0411 139.465 16.8164C139.465 16.5918 139.462 16.3863 139.457 16.2C139.451 16.0575 139.386 15.9671 139.26 15.9288L138.164 15.6082L138.139 15.189C138.903 15.211 139.686 15.2219 140.488 15.2219C140.657 15.2219 140.867 15.2192 141.118 15.2137C141.369 15.2027 141.675 15.1918 142.035 15.1808C142.362 15.1699 142.635 15.1616 142.853 15.1562C143.077 15.1507 143.251 15.1479 143.377 15.1479C144.779 15.1479 145.83 15.3836 146.528 15.8548C147.232 16.326 147.584 17.0137 147.584 17.9178C147.584 18.7342 147.368 19.3945 146.937 19.8986C146.512 20.3973 145.884 20.7808 145.055 21.0493C145.513 21.7288 145.865 22.2795 146.111 22.7014C146.362 23.1233 146.612 23.5397 146.863 23.9507C147.114 24.3562 147.341 24.7151 147.543 25.0274C147.75 25.3397 147.944 25.5863 148.124 25.7671C148.222 25.8493 148.315 25.9205 148.402 25.9808C148.495 26.0411 148.59 26.0932 148.689 26.137C148.787 26.1808 148.89 26.2192 149 26.2521C149.114 26.2795 149.24 26.3068 149.376 26.3342L149.409 26.7534C148.874 26.8301 148.263 26.8685 147.576 26.8685C147.03 26.8685 146.648 26.8329 146.43 26.7616C146.211 26.6904 146.018 26.589 145.849 26.4575C145.598 26.2603 145.366 26.0027 145.153 25.6849C144.946 25.3671 144.725 25.0082 144.49 24.6082C144.255 24.2082 144.013 23.7836 143.762 23.3342C143.516 22.8849 143.257 22.4411 142.984 22.0027C142.902 21.8767 142.834 21.7726 142.78 21.6904C142.73 21.6082 142.679 21.5479 142.624 21.5096C142.575 21.4658 142.52 21.4356 142.46 21.4192C142.406 21.3973 142.335 21.3836 142.248 21.3781L141.904 21.3699V24.1151ZM141.904 20.6548C142.193 20.6712 142.455 20.6795 142.69 20.6795C143.464 20.6795 144.032 20.4849 144.392 20.0959C144.752 19.7014 144.932 19.0877 144.932 18.2548C144.932 17.4493 144.757 16.863 144.408 16.4959C144.064 16.1233 143.527 15.937 142.796 15.937C142.67 15.937 142.534 15.9425 142.387 15.9534C142.245 15.9644 142.084 15.9808 141.904 16.0027V20.6548Z" fill="#1E1E1E"/>
<path d="M153.746 17.5315V24.0329C153.746 24.6356 153.752 25.2329 153.763 25.8247H156.963L158.084 23.4904L158.583 23.4164L158.379 26.663L158.321 26.7205C156.974 26.7041 155.656 26.6959 154.368 26.6959H152.339C151.526 26.6959 150.773 26.7041 150.08 26.7205L150.039 26.3096L151.054 26.0055C151.19 25.9671 151.264 25.8822 151.275 25.7507C151.28 25.5315 151.283 25.2877 151.283 25.0192C151.288 24.7452 151.291 24.4438 151.291 24.1151V17.5644C151.291 17.2904 151.288 17.0411 151.283 16.8164C151.283 16.5918 151.28 16.3863 151.275 16.2C151.269 16.0575 151.204 15.9671 151.078 15.9288L150.064 15.6082L150.039 15.189C150.743 15.211 151.556 15.2219 152.478 15.2219C153.427 15.2219 154.251 15.211 154.95 15.189L154.99 15.6082L153.976 15.9123C153.845 15.9452 153.774 16.0274 153.763 16.1589C153.757 16.3562 153.752 16.6384 153.746 17.0055C153.746 17.3671 153.746 17.5425 153.746 17.5315Z" fill="#1E1E1E"/>
<path d="M161.808 15.2219H163.879C165.204 15.2219 166.579 15.211 168.003 15.189L168.061 15.2548L167.553 17.9918L167.111 18.0575L166.588 16.0603H163.42V20.4247H163.862C164.337 20.4247 164.847 20.4192 165.393 20.4082C165.534 20.4027 165.627 20.3288 165.671 20.1863L165.966 19.0603L166.506 19.0356C166.489 19.8301 166.481 20.4247 166.481 20.8192C166.481 21.2027 166.489 21.789 166.506 22.5781L165.966 22.6192L165.663 21.4603C165.619 21.3123 165.534 21.2356 165.409 21.2301C164.852 21.2192 164.334 21.2137 163.854 21.2137H163.42V24.0329C163.42 24.6356 163.426 25.2329 163.437 25.8247H166.71L167.742 23.663L168.241 23.589L168.044 26.663L167.987 26.7205C166.628 26.7041 165.305 26.6959 164.018 26.6959H161.849C161.145 26.6959 160.419 26.7041 159.672 26.7205L159.631 26.3096L160.728 26.0055C160.864 25.9671 160.938 25.8822 160.949 25.7507C160.954 25.5315 160.957 25.2877 160.957 25.0192C160.962 24.7452 160.965 24.4438 160.965 24.1151V17.5644C160.965 17.2904 160.962 17.0411 160.957 16.8164C160.957 16.5918 160.954 16.3863 160.949 16.2C160.943 16.0575 160.878 15.9671 160.752 15.9288L159.655 15.6082L159.631 15.189C160.395 15.211 161.12 15.2219 161.808 15.2219Z" fill="#1E1E1E"/>
<path d="M173.495 24.1151C173.495 24.4438 173.495 24.7397 173.495 25.0027C173.5 25.2603 173.506 25.4959 173.511 25.7096C173.517 25.8849 173.58 25.9918 173.7 26.0301L174.551 26.3096L174.575 26.7205C173.97 26.7041 173.22 26.6959 172.325 26.6959C171.37 26.6959 170.519 26.7041 169.771 26.7205L169.73 26.3096L170.827 26.0055C170.963 25.9671 171.037 25.8822 171.048 25.7507C171.053 25.5315 171.056 25.2877 171.056 25.0192C171.062 24.7452 171.064 24.4438 171.064 24.1151V17.5644C171.064 17.2904 171.062 17.0411 171.056 16.8164C171.056 16.5918 171.053 16.3863 171.048 16.2C171.042 16.0575 170.977 15.9671 170.852 15.9288L169.755 15.6082L169.73 15.189C170.494 15.211 171.277 15.2219 172.079 15.2219C172.248 15.2219 172.458 15.2192 172.709 15.2137C172.96 15.2027 173.266 15.1918 173.626 15.1808C173.953 15.1699 174.226 15.1616 174.444 15.1562C174.668 15.1507 174.843 15.1479 174.968 15.1479C176.37 15.1479 177.421 15.3836 178.119 15.8548C178.823 16.326 179.175 17.0137 179.175 17.9178C179.175 18.7342 178.959 19.3945 178.528 19.8986C178.103 20.3973 177.475 20.7808 176.646 21.0493C177.104 21.7288 177.456 22.2795 177.702 22.7014C177.953 23.1233 178.204 23.5397 178.455 23.9507C178.706 24.3562 178.932 24.7151 179.134 25.0274C179.341 25.3397 179.535 25.5863 179.715 25.7671C179.813 25.8493 179.906 25.9205 179.993 25.9808C180.086 26.0411 180.182 26.0932 180.28 26.137C180.378 26.1808 180.482 26.2192 180.591 26.2521C180.705 26.2795 180.831 26.3068 180.967 26.3342L181 26.7534C180.465 26.8301 179.854 26.8685 179.167 26.8685C178.621 26.8685 178.239 26.8329 178.021 26.7616C177.803 26.6904 177.609 26.589 177.44 26.4575C177.189 26.2603 176.957 26.0027 176.744 25.6849C176.537 25.3671 176.316 25.0082 176.081 24.6082C175.847 24.2082 175.604 23.7836 175.353 23.3342C175.107 22.8849 174.848 22.4411 174.575 22.0027C174.494 21.8767 174.425 21.7726 174.371 21.6904C174.322 21.6082 174.27 21.5479 174.215 21.5096C174.166 21.4658 174.112 21.4356 174.052 21.4192C173.997 21.3973 173.926 21.3836 173.839 21.3781L173.495 21.3699V24.1151ZM173.495 20.6548C173.784 20.6712 174.046 20.6795 174.281 20.6795C175.056 20.6795 175.623 20.4849 175.983 20.0959C176.343 19.7014 176.523 19.0877 176.523 18.2548C176.523 17.4493 176.349 16.863 175.999 16.4959C175.656 16.1233 175.118 15.937 174.387 15.937C174.262 15.937 174.125 15.9425 173.978 15.9534C173.836 15.9644 173.675 15.9808 173.495 16.0027V20.6548Z" fill="#1E1E1E"/>
<path d="M77.3078 39.2816L76.8469 39.3469L76.2708 37.0939C75.81 36.9469 75.2723 36.8735 74.6578 36.8735C73.4288 36.8735 72.4687 37.3279 71.7774 38.2367C71.0916 39.1401 70.7487 40.3837 70.7487 41.9673C70.7487 43.6218 71.0944 44.9116 71.7857 45.8367C72.4769 46.7619 73.4453 47.2245 74.6907 47.2245C74.987 47.2245 75.3052 47.2 75.6454 47.151V45.0041C75.6454 44.732 75.6426 44.4844 75.6371 44.2612C75.6371 44.0381 75.6344 43.834 75.6289 43.649C75.6234 43.5075 75.5548 43.4177 75.4232 43.3796L74.3039 43.0612L74.2792 42.6531C75.0583 42.6694 75.9032 42.6776 76.814 42.6776C77.7522 42.6776 78.5559 42.6694 79.2253 42.6531L79.2747 43.0612L78.2953 43.3306C78.1637 43.3687 78.0923 43.4503 78.0814 43.5755C78.0759 43.7932 78.0704 44.0163 78.0649 44.2449C78.0649 44.468 78.0649 44.7102 78.0649 44.9714V47.5429L78.0073 47.6C76.8277 47.8667 75.7057 48 74.6414 48C72.6443 48 71.0368 47.4939 69.8188 46.4816C68.6063 45.4694 68 44.0571 68 42.2449C68 40.3184 68.6063 38.8109 69.8188 37.7224C71.0368 36.6286 72.6964 36.0816 74.7977 36.0816C75.8072 36.0816 76.8003 36.1932 77.7769 36.4163L77.8345 36.4898L77.3078 39.2816Z" fill="#1E1E1E"/>
<path d="M83.2414 41.8449C83.2414 43.5864 83.5376 44.9197 84.1302 45.8449C84.7227 46.7646 85.5923 47.2245 86.739 47.2245C87.8692 47.2245 88.7031 46.8054 89.2408 45.9673C89.784 45.1293 90.0555 43.8122 90.0555 42.0163C90.0555 40.3293 89.7703 39.034 89.1997 38.1306C88.6291 37.2218 87.7458 36.7673 86.5497 36.7673C85.3921 36.7673 84.5499 37.1891 84.0232 38.0327C83.502 38.8707 83.2414 40.1415 83.2414 41.8449ZM92.8207 41.7388C92.8207 43.6218 92.2611 45.1374 91.1419 46.2857C90.0226 47.4286 88.4645 48 86.4674 48C84.5581 48 83.0823 47.4721 82.0398 46.4163C80.9974 45.3551 80.4762 43.9211 80.4762 42.1143C80.4762 40.2313 81.0386 38.7429 82.1633 37.649C83.288 36.5497 84.8434 36 86.8295 36C88.7388 36 90.2147 36.5143 91.2571 37.5429C92.2995 38.566 92.8207 39.9646 92.8207 41.7388Z" fill="#1E1E1E"/>
<path d="M99.9888 37.0449C99.6376 36.9088 99.2563 36.8408 98.8449 36.8408C98.2633 36.8408 97.7695 37.0095 97.3635 37.3469C96.963 37.6844 96.7627 38.1197 96.7627 38.6531C96.7627 38.9741 96.8286 39.249 96.9603 39.4776C97.0919 39.7061 97.2675 39.9102 97.487 40.0898C97.7064 40.2694 97.956 40.4299 98.2359 40.5714C98.5212 40.7129 98.8147 40.8544 99.1164 40.9959C99.4511 41.1537 99.7885 41.3279 100.129 41.5184C100.469 41.7034 100.773 41.9265 101.042 42.1878C101.311 42.4435 101.528 42.751 101.692 43.1102C101.862 43.4694 101.947 43.9048 101.947 44.4163C101.947 45.5211 101.528 46.3891 100.688 47.0204C99.8489 47.6517 98.7406 47.9673 97.3635 47.9673C96.3705 47.9673 95.3911 47.8122 94.4255 47.502L94.3761 47.4286L94.8123 44.4898L95.3225 44.4082L95.9398 46.9061C96.3348 47.0857 96.7737 47.1755 97.2565 47.1755C97.9533 47.1755 98.5129 47.0014 98.9354 46.6531C99.3633 46.2993 99.5773 45.8286 99.5773 45.2408C99.5773 44.9088 99.5115 44.6286 99.3798 44.4C99.2481 44.166 99.0698 43.9592 98.8449 43.7796C98.6199 43.5946 98.3648 43.4313 98.0795 43.2898C97.7942 43.1483 97.4979 43.0068 97.1907 42.8653C96.856 42.702 96.5213 42.5306 96.1867 42.351C95.852 42.1714 95.553 41.9537 95.2896 41.698C95.0263 41.4422 94.8123 41.1374 94.6477 40.7837C94.4831 40.4245 94.4008 39.9918 94.4008 39.4857C94.4008 38.4463 94.8013 37.619 95.6024 37.0041C96.4034 36.3891 97.4431 36.0816 98.7214 36.0816C99.5334 36.0816 100.458 36.2068 101.495 36.4571L101.544 36.5306L101.042 39.1592L100.59 39.2327L99.9888 37.0449Z" fill="#1E1E1E"/>
<path d="M107.05 42.1306C107.363 42.1905 107.673 42.2204 107.98 42.2204C108.699 42.2204 109.244 42.0027 109.618 41.5673C109.996 41.1265 110.185 40.4626 110.185 39.5755C110.185 38.7156 110.007 38.0762 109.65 37.6571C109.294 37.2327 108.731 37.0204 107.963 37.0204C107.662 37.0204 107.357 37.0422 107.05 37.0857V42.1306ZM107.05 45.1347C107.05 45.4612 107.05 45.7551 107.05 46.0163C107.055 46.2721 107.061 46.5034 107.066 46.7102C107.072 46.8354 107.143 46.9224 107.28 46.9714L108.49 47.3143L108.515 47.7224C107.664 47.7061 106.776 47.698 105.848 47.698C104.888 47.698 104.032 47.7061 103.281 47.7224L103.24 47.3143L104.342 47.0122C104.485 46.9687 104.559 46.8844 104.564 46.7592C104.57 46.5415 104.573 46.2993 104.573 46.0327C104.578 45.7605 104.581 45.4612 104.581 45.1347V38.6286C104.581 38.3565 104.578 38.1088 104.573 37.8857C104.573 37.6626 104.57 37.4585 104.564 37.2735C104.559 37.132 104.493 37.0422 104.367 37.0041L103.264 36.6857L103.24 36.2694C104.008 36.2912 104.767 36.302 105.519 36.302C106.035 36.302 106.534 36.2912 107.017 36.2694C107.505 36.2476 107.95 36.2367 108.35 36.2367C109.831 36.2367 110.953 36.4925 111.716 37.0041C112.479 37.5102 112.86 38.2639 112.86 39.2653C112.86 40.4463 112.462 41.366 111.667 42.0245C110.877 42.6776 109.76 43.0041 108.317 43.0041C107.928 43.0041 107.505 42.9741 107.05 42.9143V45.1347Z" fill="#1E1E1E"/>
<path d="M117.518 45.1347C117.518 45.4612 117.518 45.7578 117.518 46.0245C117.523 46.2912 117.529 46.5306 117.534 46.7429C117.54 46.8844 117.633 46.9796 117.814 47.0286L118.827 47.3143L118.851 47.7224C118.089 47.7061 117.244 47.698 116.316 47.698C115.356 47.698 114.5 47.7061 113.749 47.7224L113.708 47.3143L114.81 47.0122C114.948 46.9741 115.022 46.8898 115.033 46.7592C115.038 46.5415 115.041 46.2993 115.041 46.0327C115.046 45.7605 115.049 45.4612 115.049 45.1347V38.6286C115.049 38.3565 115.046 38.1088 115.041 37.8857C115.041 37.6626 115.038 37.4585 115.033 37.2735C115.027 37.132 114.961 37.0422 114.835 37.0041L113.732 36.6857L113.708 36.2694C114.47 36.2912 115.315 36.302 116.242 36.302C117.197 36.302 118.053 36.2912 118.81 36.2694L118.851 36.6857L117.748 36.9878C117.617 37.0204 117.545 37.102 117.534 37.2327C117.529 37.4286 117.523 37.6408 117.518 37.8694C117.518 38.0925 117.518 38.3347 117.518 38.5959V45.1347Z" fill="#1E1E1E"/>
<path d="M124.851 47.698C123.885 47.698 122.963 47.7061 122.085 47.7224L122.044 47.3143L123.361 46.9551C123.498 46.9116 123.57 46.8245 123.575 46.6939C123.586 46.2857 123.592 45.7605 123.592 45.1184V37.1429H121.221L120.464 39.3143L120.003 39.3878L119.789 36.3347L119.847 36.2694C121.197 36.2912 122.489 36.302 123.723 36.302H126.019C127.254 36.302 128.554 36.2912 129.92 36.2694L129.97 36.3347L129.426 39.3224L128.965 39.3959L128.431 37.1429H126.052V45.1184C126.052 45.7605 126.058 46.2857 126.069 46.6939C126.074 46.8245 126.148 46.9116 126.291 46.9551L127.583 47.3143L127.608 47.7224C126.697 47.7061 125.778 47.698 124.851 47.698Z" fill="#1E1E1E"/>
<path d="M132.249 44.0735L131.665 45.6C131.55 45.8993 131.459 46.1415 131.393 46.3265C131.333 46.5061 131.303 46.6449 131.303 46.7429C131.303 46.8354 131.327 46.9061 131.377 46.9551C131.426 47.0041 131.503 47.0422 131.607 47.0694L132.397 47.298L132.422 47.7224C131.626 47.7061 130.979 47.698 130.48 47.698C129.959 47.698 129.363 47.7061 128.694 47.7224L128.653 47.3143L129.533 47.0531C129.742 46.9932 129.895 46.8952 129.994 46.7592C130.093 46.6177 130.203 46.4054 130.323 46.1224L134.422 36.2204L135.311 36.0898L138.858 46.0163C138.995 46.3973 139.118 46.6558 139.228 46.7918C139.343 46.9224 139.505 47.0177 139.713 47.0776L140.52 47.3143L140.545 47.7224C139.804 47.7061 139.058 47.698 138.306 47.698C137.313 47.698 136.345 47.7061 135.401 47.7224L135.36 47.3143L136.175 47.0776C136.284 47.0449 136.364 47.0041 136.413 46.9551C136.463 46.9061 136.487 46.8327 136.487 46.7347C136.487 46.6259 136.46 46.4844 136.405 46.3102C136.35 46.1306 136.271 45.8966 136.166 45.6082L135.623 44.0735H132.249ZM134.027 39.3878C133.928 39.6707 133.821 39.9646 133.706 40.2694L132.578 43.2245H135.327L134.315 40.2776C134.211 39.9673 134.115 39.6707 134.027 39.3878Z" fill="#1E1E1E"/>
<path d="M144.939 38.5959V45.0531C144.939 45.6517 144.945 46.2449 144.956 46.8327H148.174L149.301 44.5143L149.803 44.4408L149.597 47.6653L149.54 47.7224C148.185 47.7061 146.86 47.698 145.565 47.698H143.524C142.706 47.698 141.949 47.7061 141.252 47.7224L141.211 47.3143L142.232 47.0122C142.369 46.9741 142.443 46.8898 142.454 46.7592C142.459 46.5415 142.462 46.2993 142.462 46.0327C142.468 45.7605 142.47 45.4612 142.47 45.1347V38.6286C142.47 38.3565 142.468 38.1088 142.462 37.8857C142.462 37.6626 142.459 37.4585 142.454 37.2735C142.448 37.132 142.383 37.0422 142.256 37.0041L141.236 36.6857L141.211 36.2694C141.919 36.2912 142.736 36.302 143.664 36.302C144.618 36.302 145.447 36.2912 146.149 36.2694L146.19 36.6857L145.17 36.9878C145.038 37.0204 144.967 37.102 144.956 37.2327C144.95 37.4286 144.945 37.7088 144.939 38.0735C144.939 38.4327 144.939 38.6068 144.939 38.5959Z" fill="#1E1E1E"/>
<path d="M154.667 45.1347C154.667 45.4612 154.667 45.7578 154.667 46.0245C154.672 46.2912 154.678 46.5306 154.683 46.7429C154.689 46.8844 154.782 46.9796 154.963 47.0286L155.975 47.3143L156 47.7224C155.237 47.7061 154.392 47.698 153.465 47.698C152.505 47.698 151.649 47.7061 150.898 47.7224L150.856 47.3143L151.959 47.0122C152.096 46.9741 152.17 46.8898 152.181 46.7592C152.187 46.5415 152.19 46.2993 152.19 46.0327C152.195 45.7605 152.198 45.4612 152.198 45.1347V38.6286C152.198 38.3565 152.195 38.1088 152.19 37.8857C152.19 37.6626 152.187 37.4585 152.181 37.2735C152.176 37.132 152.11 37.0422 151.984 37.0041L150.881 36.6857L150.856 36.2694C151.619 36.2912 152.464 36.302 153.391 36.302C154.346 36.302 155.202 36.2912 155.959 36.2694L156 36.6857L154.897 36.9878C154.766 37.0204 154.694 37.102 154.683 37.2327C154.678 37.4286 154.672 37.6408 154.667 37.8694C154.667 38.0925 154.667 38.3347 154.667 38.5959V45.1347Z" fill="#1E1E1E"/>
</svg>
