<svg width="17" height="16" viewBox="0 0 17 16" fill="none" xmlns="http://www.w3.org/2000/svg">
<path fill-rule="evenodd" clip-rule="evenodd" d="M16.949 11.2984C16.9074 12.15 16.7639 12.7314 16.5533 13.2407C16.3361 13.767 16.0452 14.2132 15.5729 14.6577C15.1007 15.1022 14.6266 15.376 14.0675 15.5804C13.5263 15.7778 12.9087 15.9138 12.0039 15.952C11.0972 15.9911 10.8082 16 8.5 16C6.19083 16 5.90183 15.9911 4.99517 15.952C4.09039 15.9138 3.47272 15.7778 2.93156 15.5804C2.37244 15.376 1.89928 15.1022 1.42611 14.6577C0.953889 14.2132 0.663 13.767 0.445778 13.2407C0.236111 12.7314 0.0916111 12.15 0.051 11.2984C0.00944445 10.445 0 10.173 0 7.99956C0 5.82699 0.00944445 5.55498 0.051 4.70159C0.0916111 3.84999 0.236111 3.26863 0.445778 2.75926C0.663 2.23301 0.953889 1.78677 1.42611 1.3423C1.89928 0.897828 2.37244 0.624035 2.93156 0.419579C3.47272 0.222235 4.09039 0.086227 4.99517 0.0480027C5.90183 0.00888938 6.19083 0 8.5 0C10.8082 0 11.0972 0.00888938 12.0039 0.0480027C12.9087 0.086227 13.5263 0.222235 14.0675 0.419579C14.6266 0.624035 15.1007 0.897828 15.5729 1.3423C16.0452 1.78677 16.3361 2.23301 16.5533 2.75926C16.7639 3.26863 16.9074 3.84999 16.949 4.70159C16.9896 5.55498 17 5.82699 17 7.99956C17 10.173 16.9896 10.445 16.949 11.2984ZM15.419 4.76738C15.3812 3.98689 15.2424 3.56375 15.1262 3.28196C14.9713 2.90861 14.7872 2.64192 14.4897 2.36191C14.1931 2.08189 13.9098 1.90855 13.5131 1.76276C13.2137 1.65343 12.7632 1.52364 11.934 1.48808C11.0377 1.44897 10.7695 1.44097 8.5 1.44097C6.22956 1.44097 5.96133 1.44897 5.06506 1.48808C4.23583 1.52364 3.78628 1.65343 3.48689 1.76276C3.09022 1.90855 2.80689 2.08189 2.50939 2.36191C2.21189 2.64192 2.02772 2.90861 1.87378 3.28196C1.75667 3.56375 1.61878 3.98689 1.581 4.76738C1.53944 5.61098 1.53094 5.86344 1.53094 7.99956C1.53094 10.1366 1.53944 10.389 1.581 11.2326C1.61878 12.0131 1.75667 12.4362 1.87378 12.718C2.02772 13.0914 2.21189 13.3581 2.50939 13.6381C2.80689 13.9181 3.09022 14.0914 3.48689 14.2363C3.78628 14.3466 4.23583 14.4764 5.06506 14.5119C5.96133 14.551 6.22956 14.559 8.5 14.559C10.7695 14.559 11.0377 14.551 11.934 14.5119C12.7632 14.4764 13.2137 14.3466 13.5131 14.2363C13.9098 14.0914 14.1931 13.9181 14.4897 13.6381C14.7872 13.3581 14.9713 13.0914 15.1262 12.718C15.2424 12.4362 15.3812 12.0131 15.419 11.2326C15.4596 10.389 15.4681 10.1366 15.4681 7.99956C15.4681 5.86344 15.4596 5.61098 15.419 4.76738ZM13.0371 4.68915C12.4733 4.68915 12.0171 4.25979 12.0171 3.7291C12.0171 3.19929 12.4733 2.76904 13.0371 2.76904C13.6 2.76904 14.0571 3.19929 14.0571 3.7291C14.0571 4.25979 13.6 4.68915 13.0371 4.68915ZM8.5 12.1082C6.08883 12.1082 4.13478 10.269 4.13478 7.99956C4.13478 5.73098 6.08883 3.89177 8.5 3.89177C10.9102 3.89177 12.8643 5.73098 12.8643 7.99956C12.8643 10.269 10.9102 12.1082 8.5 12.1082ZM8.5 5.33274C6.93506 5.33274 5.66667 6.52747 5.66667 7.99956C5.66667 9.47253 6.93506 10.6673 8.5 10.6673C10.0649 10.6673 11.3333 9.47253 11.3333 7.99956C11.3333 6.52747 10.0649 5.33274 8.5 5.33274Z" fill="white"/>
</svg>
