<svg width="14" height="18" viewBox="0 0 14 18" fill="none" xmlns="http://www.w3.org/2000/svg">
<path fill-rule="evenodd" clip-rule="evenodd" d="M13.9055 16.0724C13.9055 17.089 13.0003 17.9141 11.8835 17.9141C10.3627 17.973 8.80861 18 7.2248 18C7.14959 18 7.07438 18 6.99917 18C6.92396 18 6.84962 18 6.77441 18C5.1906 18 3.63566 17.973 2.11482 17.9141C0.998897 17.9141 0.0937401 17.089 0.0937401 16.0724C0.0263999 15.2661 -0.00246017 14.4605 0.000163475 13.655C-0.00246017 12.8494 0.0263999 12.0439 0.0937401 11.2383C0.0937401 10.2218 0.998897 9.39582 2.11482 9.39582C3.62866 9.33776 5.17661 9.30995 6.75255 9.30995C6.83475 9.30995 6.91696 9.30995 6.99917 9.30995C7.08225 9.30995 7.16446 9.30995 7.24667 9.30995C8.82348 9.30995 10.3706 9.33776 11.8835 9.39582C13.0003 9.39582 13.9055 10.2218 13.9055 11.2383C13.9728 12.0439 14.0017 12.8494 13.9999 13.655C14.0017 14.4605 13.9728 15.2661 13.9055 16.0724ZM4.05719 10.7182H1.12133V11.5475H2.11132V16.4282H3.0672V11.5475H4.05719V10.7182ZM6.47007 12.2164H5.62088V15.4133C5.54042 15.5049 5.45384 15.5809 5.35852 15.6398C5.26232 15.6995 5.18361 15.7281 5.12152 15.7281C5.04193 15.7281 4.98421 15.706 4.94836 15.6611C4.9125 15.6169 4.89501 15.5449 4.89501 15.4443V12.2164H4.04582V15.7363C4.04582 15.9874 4.09567 16.1755 4.19537 16.3006C4.29419 16.4257 4.44287 16.4887 4.63877 16.4887C4.79793 16.4887 4.96235 16.4437 5.13201 16.3537C5.3008 16.2646 5.46434 16.1346 5.62088 15.9628V16.4282H6.47007V12.2164ZM9.73913 13.2191C9.73913 12.8748 9.66829 12.6123 9.52661 12.4323C9.38494 12.2532 9.17942 12.1625 8.91181 12.1625C8.77975 12.1625 8.64944 12.1968 8.52088 12.2639C8.39232 12.3301 8.26989 12.4274 8.15532 12.5567V10.7182H7.29827V16.4282H8.15532V16.1043C8.26814 16.2327 8.38795 16.3276 8.51826 16.3889C8.64857 16.4502 8.79637 16.4813 8.96253 16.4813C9.2144 16.4813 9.40592 16.402 9.53973 16.2433C9.67266 16.0839 9.73913 15.8549 9.73913 15.5556V13.2191ZM12.8779 14.9226H12.0042V15.2154C12.0042 15.4632 11.9762 15.6234 11.9203 15.6962C11.8643 15.7682 11.7655 15.8042 11.6247 15.8042C11.49 15.8042 11.3946 15.7617 11.3387 15.6758C11.2818 15.5907 11.2538 15.4362 11.2538 15.2154V14.4204H12.8779V13.3483C12.8779 12.9492 12.7738 12.6425 12.5657 12.4299C12.3567 12.2164 12.0584 12.1101 11.6701 12.1101C11.2897 12.1101 10.9801 12.2246 10.7396 12.4544C10.4991 12.6851 10.3802 12.9827 10.3802 13.3483V15.2391C10.3802 15.6447 10.4895 15.9628 10.7073 16.1951C10.9259 16.4257 11.2259 16.5418 11.6054 16.5418C12.0287 16.5418 12.3462 16.4331 12.5587 16.2147C12.7721 15.9955 12.8779 15.6709 12.8779 15.2391V14.9226ZM11.2538 13.3409C11.2538 13.1643 11.2836 13.0375 11.3422 12.9615C11.4016 12.8854 11.4987 12.847 11.6334 12.847C11.7628 12.847 11.8573 12.8854 11.9159 12.9615C11.9745 13.0375 12.0042 13.1643 12.0042 13.3409V13.767H11.2538V13.3409ZM8.56199 15.8197C8.49027 15.8197 8.42206 15.805 8.35734 15.7747C8.29175 15.7445 8.22529 15.6946 8.15532 15.6267V13.0015C8.21392 12.9443 8.27164 12.901 8.33111 12.8731C8.39058 12.8462 8.45004 12.8323 8.51039 12.8323C8.62583 12.8323 8.71328 12.8691 8.77363 12.9427C8.83485 13.0163 8.86545 13.1242 8.86545 13.2665V15.4403C8.86545 15.5752 8.84009 15.6717 8.79112 15.7306C8.74214 15.7903 8.66606 15.8197 8.56199 15.8197ZM12.0068 7.67024C11.7777 7.92049 11.5389 8.11104 11.2923 8.24189C11.044 8.37274 10.8026 8.43735 10.5708 8.43735C10.2831 8.43735 10.0671 8.34657 9.92191 8.16338C9.77673 7.98101 9.70327 7.70622 9.70327 7.34066V2.1901H10.946V6.91213C10.946 7.0577 10.9722 7.1632 11.0238 7.22781C11.0754 7.29405 11.1594 7.32676 11.2757 7.32676C11.3675 7.32676 11.483 7.28342 11.622 7.19673C11.762 7.11004 11.8896 6.99964 12.0068 6.86552V2.1901H13.2487V8.34984H12.0068V7.67024ZM8.16669 8.05543C7.84486 8.35393 7.40409 8.50441 6.84263 8.50522H6.83038C6.28991 8.50441 5.85701 8.34902 5.53168 8.04071C5.20635 7.73076 5.04281 7.31449 5.04281 6.79191V3.59836C5.04281 3.12158 5.20985 2.7413 5.5448 2.45834C5.87887 2.17537 6.32839 2.03471 6.89335 2.03471C7.40758 2.03471 7.82824 2.18273 8.15707 2.48124C8.48415 2.77892 8.64769 3.16247 8.64857 3.63189V6.81563C8.64769 7.3423 8.48678 7.75529 8.16669 8.05543ZM7.3831 3.55175C7.3831 3.41763 7.3315 3.30886 7.23093 3.22544C7.12948 3.14284 6.99655 3.10195 6.83301 3.10195C6.68083 3.10195 6.5584 3.14284 6.46395 3.22544C6.3695 3.30886 6.3214 3.41763 6.3214 3.55175V6.90641C6.3214 7.07569 6.36512 7.20654 6.45345 7.29977C6.54266 7.39137 6.66859 7.43798 6.83301 7.43798C7.00179 7.43798 7.1356 7.39055 7.23355 7.29568C7.33325 7.20164 7.3831 7.07242 7.3831 6.90641V3.55175ZM3.47824 8.34984H2.07896V5.04016L0.415574 0H1.8236L2.73138 3.33748H2.82058L3.68463 0H5.10665L3.47824 4.88478V8.34984Z" fill="white"/>
</svg>
